# xmcd CD database file
#
# Track frame offsets:
#	183
#	14378
#	28718
#	43235
#	55850
#	69300
#	81535
#	96398
#	110950
#	125868
#	140413
#	154508
#	166803
#	179290
#	191448
#	206065
#
# Disc length: 2929 seconds
#
# Revision: 0
# Processed by: cddbd v1.5.2PL0 Copyright (c) Steve Scherf et al.
# Submitted via: CDex 1.70beta2
#
DISCID=e90b6f10
DTITLE=Memphis Blues - Memphis Blues 1928-30 CD2
DYEAR=1928
DGENRE=Blues
TTITLE0=Sun Brimmer Blues - Will Shade - Will Weldon
TTITLE1=Snitchin' Gambler Blues - Will Shade
TTITLE2=Peaches in the Springtime - Will Shade
TTITLE3=A black woman is like a blacke snake - Will Shade
TTITLE4=Dirty Butter - Will Shade - Minnie Wallace
TTITLE5=The old folks started it - Will Shade - Minnie Wallace
TTITLE6=Won't you be kind to me? - Will Shade - Hattie Hart
TTITLE7=You wouldn't, would you papa? - Will Shade - Hattie Hart
TTITLE8=Big Railroad Blues - Gus Cannon
TTITLE9=Feather Bed - Gus Cannon
TTITLE10=Viola Lee Blues - Gus Cannon - Noah Lewis
TTITLE11=Bring it with you when you come - Gus Cannon
TTITLE12=I'm going back home - Joe Mc Coy
TTITLE13=I never told a lie - Joe Mc Coy
TTITLE14=Don't want no woman - Joe Mc Coy
TTITLE15=Georgia Skin - Joe Mc Coy
EXTD=YEAR: 1928
EXTT0=
EXTT1=
EXTT2=
EXTT3=
EXTT4=
EXTT5=
EXTT6=
EXTT7=
EXTT8=
EXTT9=
EXTT10=
EXTT11=
EXTT12=
EXTT13=
EXTT14=
EXTT15=
PLAYORDER=
